<?xml version="1.0" standalone="no"?><svg xmlns="http://www.w3.org/2000/svg" viewBox="0 0 1440 320"><path fill="#ffcbcb" fill-opacity="1" d="M0,96L30,96C60,96,120,96,180,96C240,96,300,96,360,106.7C420,117,480,139,540,170.7C600,203,660,245,720,240C780,235,840,181,900,165.3C960,149,1020,171,1080,202.7C1140,235,1200,277,1260,250.7C1320,224,1380,128,1410,80L1440,32L1440,320L1410,320C1380,320,1320,320,1260,320C1200,320,1140,320,1080,320C1020,320,960,320,900,320C840,320,780,320,720,320C660,320,600,320,540,320C480,320,420,320,360,320C300,320,240,320,180,320C120,320,60,320,30,320L0,320Z"></path></svg>