<svg xmlns="http://www.w3.org/2000/svg" viewBox="0 0 1440 320">
  <defs>
    <linearGradient id="myGradient" gradientTransform="rotate(139)">
      <stop offset="0%" style="stop-color:#4defa7" />
      <stop offset="100%" style="stop-color:#2d71fa" />
    </linearGradient>
  </defs>
  <path fill="url(#myGradient)" fill-opacity="1" d="M0,32L60,69.3C120,107,240,181,360,213.3C480,245,600,235,720,224C840,213,960,203,1080,208C1200,213,1320,235,1380,245.3L1440,256L1440,0L1380,0C1320,0,1200,0,1080,0C960,0,840,0,720,0C600,0,480,0,360,0C240,0,120,0,60,0L0,0Z"></path>
</svg>
