<svg xmlns="http://www.w3.org/2000/svg" viewBox="0 0 1440 320">
  <defs>
    <linearGradient id="myGradient" gradientTransform="rotate(139)">
      <stop offset="0%" style="stop-color:#4defa7" />
      <stop offset="100%" style="stop-color:#2d71fa" />
    </linearGradient>
  </defs>
  <path fill="url(#myGradient)" fill-opacity="1" d="M0,128L60,149.3C120,171,240,213,360,208C480,203,600,149,720,149.3C840,149,960,203,1080,186.7C1200,171,1320,85,1380,42.7L1440,0L1440,320L1380,320C1320,320,1200,320,1080,320C960,320,840,320,720,320C600,320,480,320,360,320C240,320,120,320,60,320L0,320Z"></path>
</svg>
