
        <svg xmlns="http://www.w3.org/2000/svg" xmlns:xlink="http://www.w3.org/1999/xlink" version="1.1" width="3171.5342788272883" 
        height="760.1322944111218" viewBox="0 0 3171.5342788272883 760.1322944111218">
			<rect fill="#ffffff" width="3171.5342788272883" height="760.1322944111218"/>
			<g transform="scale(8.576713941364426) translate(10, 10)">
				<defs id="SvgjsDefs4518"><linearGradient id="SvgjsLinearGradient4523"><stop id="SvgjsStop4524" stop-color="#00ff8f" offset="0"></stop><stop id="SvgjsStop4525" stop-color="#00a1ff" offset="1"></stop></linearGradient></defs><g id="SvgjsG4519" featureKey="Df7oLJ-0" transform="matrix(0.8073817762399078,0,0,0.8073817762399078,-2.0184544405997693,-2.0184544405997693)" fill="url(#SvgjsLinearGradient4523)"><path xmlns="http://www.w3.org/2000/svg" d="M64.211,42.71l13.828-24.433C70.248,8.656,58.346,2.5,45,2.5c-1.125,0-2.235,0.057-3.337,0.143L64.211,42.71z"></path><path xmlns="http://www.w3.org/2000/svg" d="M52.7,26.875L39.21,2.903C24.729,4.877,12.572,14.136,6.555,26.875H52.7z"></path><path xmlns="http://www.w3.org/2000/svg" d="M56.543,60.859h27.888C86.404,55.957,87.5,50.608,87.5,45c0-9.242-2.959-17.787-7.968-24.76L56.543,60.859z"></path><path xmlns="http://www.w3.org/2000/svg" d="M33.45,29.141H5.571C3.597,34.042,2.5,39.392,2.5,45c0,9.19,2.927,17.693,7.887,24.646L33.45,29.141z"></path><path xmlns="http://www.w3.org/2000/svg" d="M37.35,63.125L50.9,87.083c14.433-2.006,26.544-11.252,32.546-23.958H37.35z"></path><path xmlns="http://www.w3.org/2000/svg" d="M25.757,47.231L11.875,71.614C19.665,81.298,31.605,87.5,45,87.5c1.163,0,2.31-0.06,3.449-0.151L25.757,47.231z"></path></g><g id="SvgjsG4520" featureKey="Ua4uQk-0" transform="matrix(2.66215104290284,0,0,2.66215104290284,85.8054173521628,0.02709374258295938)" fill="#303a52"><path d="M10.2 8.94 l-5.68 0 l0 2.66 l4.66 0 l0 2.74 l-4.66 0 l0 5.66 l-3.32 0 l0 -14 l9 0 l0 2.94 z M18.6 9.44 c0.28 0 0.56 0 0.82 0.06 l0 3.02 c-0.24 -0.06 -0.52 -0.06 -0.72 -0.06 c-1.92 0 -3.46 1.38 -3.62 3.3 l0 4.24 l-3.16 0 l0 -10.4 l3.16 0 l0 2.54 c0.48 -1.56 1.68 -2.7 3.52 -2.7 z M26.200000000000003 9.42 c2.36 0 5.66 1.78 5 6.48 l-7.26 0 c0.36 1.08 1.3 1.64 2.56 1.64 c1.28 0 1.68 -0.28 2.4 -0.58 l1.74 1.68 c-0.92 0.9 -2.16 1.56 -4.26 1.56 c-2.58 0 -5.66 -1.78 -5.66 -5.36 c0 -3.64 3.12 -5.42 5.48 -5.42 z M26.200000000000003 12.120000000000001 c-0.9 0 -1.82 0.52 -2.22 1.56 l4.42 0 c-0.32 -1.04 -1.3 -1.56 -2.2 -1.56 z M37.96000000000001 9.42 c2.36 0 5.66 1.78 5 6.48 l-7.26 0 c0.36 1.08 1.3 1.64 2.56 1.64 c1.28 0 1.68 -0.28 2.4 -0.58 l1.74 1.68 c-0.92 0.9 -2.16 1.56 -4.26 1.56 c-2.58 0 -5.66 -1.78 -5.66 -5.36 c0 -3.64 3.12 -5.42 5.48 -5.42 z M37.96000000000001 12.120000000000001 c-0.9 0 -1.82 0.52 -2.22 1.56 l4.42 0 c-0.32 -1.04 -1.3 -1.56 -2.2 -1.56 z M48.16000000000001 17.04 l5.32 0 l0 2.96 l-8.54 0 l0 -14 l3.22 0 l0 11.04 z M60.260000000000005 9.42 c2.36 0 5.66 1.78 5 6.48 l-7.26 0 c0.36 1.08 1.3 1.64 2.56 1.64 c1.28 0 1.68 -0.28 2.4 -0.58 l1.74 1.68 c-0.92 0.9 -2.16 1.56 -4.26 1.56 c-2.58 0 -5.66 -1.78 -5.66 -5.36 c0 -3.64 3.12 -5.42 5.48 -5.42 z M60.260000000000005 12.120000000000001 c-0.9 0 -1.82 0.52 -2.22 1.56 l4.42 0 c-0.32 -1.04 -1.3 -1.56 -2.2 -1.56 z M74.54 9.6 l3.16 0 l0 10.4 l-3.16 0 l0 -1.04 c-0.14 0.36 -1.08 1.24 -2.68 1.24 c-2.38 0 -5.12 -1.7 -5.12 -5.42 c0 -3.58 2.74 -5.36 5.12 -5.36 c1.6 0 2.54 0.92 2.68 1.14 l0 -0.96 z M72.32000000000001 17.42 c1.3 0 2.36 -0.9 2.36 -2.64 c0 -1.68 -1.06 -2.58 -2.36 -2.58 c-1.36 0 -2.52 0.92 -2.52 2.58 c0 1.72 1.16 2.64 2.52 2.64 z M86.42 9.44 c0.28 0 0.56 0 0.82 0.06 l0 3.02 c-0.24 -0.06 -0.52 -0.06 -0.72 -0.06 c-1.92 0 -3.46 1.38 -3.62 3.3 l0 4.24 l-3.16 0 l0 -10.4 l3.16 0 l0 2.54 c0.48 -1.56 1.68 -2.7 3.52 -2.7 z M95.24000000000001 9.44 c1.94 0 3.92 1.3 3.92 4.6 l0 5.96 l-3.16 0 l0 -5.74 c0 -1.58 -0.54 -2.08 -1.54 -2.08 c-1.42 0 -2.24 1.38 -2.44 1.98 l0 5.84 l-3.16 0 l0 -10.4 l3.16 0 l0 1.8 c0.2 -0.5 1.26 -1.96 3.22 -1.96 z"></path></g>
			</g>
		</svg>
	